<svg preserveAspectRatio="xMinYMin meet"
     id="logo-kadince"
     viewBox="0 0 138.06 45"
     class="stuck-hide">

    <path d="M22.2,10.66A11.84,11.84,0,1,0,34,22.5,11.84,11.84,0,0,0,22.2,10.66Zm0,19.16a7.32,7.32,0,1,1,7.32-7.32A7.31,7.31,0,0,1,22.2,29.82Z"></path>
    <path d="M18.66.31l1.68,5.27c.61-.06,1.24-.11,1.87-.11a16.3,16.3,0,0,1,1.86.11L25.75.31A21.67,21.67,0,0,0,22.21,0,21.9,21.9,0,0,0,18.66.31Z"></path>
    <path d="M6.29,6.63l4.46,3.28A16.68,16.68,0,0,1,12.2,8.72c.51-.37,1-.7,1.57-1L12,2.46A22.09,22.09,0,0,0,9,4.29,22.68,22.68,0,0,0,6.29,6.63Z"></path>
    <path d="M0,19l5.54,0A17.39,17.39,0,0,1,6,17.23c.2-.6.43-1.17.68-1.73l-4.5-3.23A22.11,22.11,0,0,0,.81,15.54,22.75,22.75,0,0,0,0,19Z"></path>
    <path d="M2.19,32.73l4.5-3.23A18.17,18.17,0,0,1,6,27.75,16.43,16.43,0,0,1,5.54,26L0,26a22.59,22.59,0,0,0,.8,3.47A23.91,23.91,0,0,0,2.19,32.73Z"></path>
    <path d="M12,42.54l1.74-5.26a15.61,15.61,0,0,1-1.58-1,16.76,16.76,0,0,1-1.44-1.18L6.29,38.37A23.08,23.08,0,0,0,9,40.7,22.36,22.36,0,0,0,12,42.54Z"></path>
    <path d="M25.75,44.69l-1.68-5.27c-.61.06-1.24.11-1.87.11a16.3,16.3,0,0,1-1.86-.11l-1.68,5.27A21.67,21.67,0,0,0,22.2,45,21.9,21.9,0,0,0,25.75,44.69Z"></path>
    <path d="M38.12,38.37l-4.46-3.28a16.68,16.68,0,0,1-1.45,1.19c-.51.37-1,.7-1.57,1l1.74,5.25a22.09,22.09,0,0,0,3-1.83A23.49,23.49,0,0,0,38.12,38.37Z"></path>
    <path d="M44.41,26l-5.54,0a17.46,17.46,0,0,1-.48,1.82,16.31,16.31,0,0,1-.67,1.73l4.5,3.23a22.11,22.11,0,0,0,1.38-3.27A22.75,22.75,0,0,0,44.41,26Z"></path>
    <path d="M42.21,12.27,37.72,15.5a18.17,18.17,0,0,1,.68,1.75,16.43,16.43,0,0,1,.47,1.8l5.54,0a22.59,22.59,0,0,0-.8-3.47A22.78,22.78,0,0,0,42.21,12.27Z"></path>
    <path d="M32.38,2.46,30.64,7.72a16.82,16.82,0,0,1,1.58,1,18.46,18.46,0,0,1,1.44,1.18l4.46-3.28A23.08,23.08,0,0,0,35.44,4.3,23,23,0,0,0,32.38,2.46Z"></path>
    <path d="M56,25.61l4.44-10h3l-5.17,11L64,38.52H60.89L56,27.81V38.52H53.29V6H56Z"></path>
    <path d="M65.59,30.83a7.43,7.43,0,0,1,.34-2.36,4.56,4.56,0,0,1,1.22-1.85,9.07,9.07,0,0,1,2.31-1.53,21.67,21.67,0,0,1,3.59-1.35V20.39a3.58,3.58,0,0,0-.53-2.05,1.91,1.91,0,0,0-1.71-.78,1.93,1.93,0,0,0-1.83.78,4.06,4.06,0,0,0-.46,2.1v1h-2.7v-1.1a8.66,8.66,0,0,1,.23-2.1,4,4,0,0,1,.8-1.65,3.77,3.77,0,0,1,1.53-1.07,7.73,7.73,0,0,1,4.85,0,3.77,3.77,0,0,1,1.53,1.07,4,4,0,0,1,.81,1.65,9.19,9.19,0,0,1,.23,2.1V38.52H74.19l-.73-1.37a3.26,3.26,0,0,1-1.21,1.37,4,4,0,0,1-2,.46,4.36,4.36,0,0,1-3.55-1.31,6.08,6.08,0,0,1-1.07-3.91Zm7.46-5a12.43,12.43,0,0,0-2.38,1,5.32,5.32,0,0,0-1.44,1.09,3.13,3.13,0,0,0-.71,1.33,6.68,6.68,0,0,0-.19,1.6v3a3.6,3.6,0,0,0,.53,2.08,2.11,2.11,0,0,0,1.85.76,2,2,0,0,0,1.81-.81,3.62,3.62,0,0,0,.53-2Z"></path>
    <path d="M88,38.52l-.73-1.42A3.53,3.53,0,0,1,83.9,39a4.08,4.08,0,0,1-3.46-1.31,6.53,6.53,0,0,1-1-4V20.49a6.79,6.79,0,0,1,1-4,3.93,3.93,0,0,1,3.38-1.3,3.74,3.74,0,0,1,1.86.45,3.7,3.7,0,0,1,1.26,1.19V6h2.74v32.5ZM86.92,20.58a4,4,0,0,0-.55-2.18,2.08,2.08,0,0,0-1.88-.84,1.92,1.92,0,0,0-1.78.8,3.9,3.9,0,0,0-.51,2.13V33.67a3.89,3.89,0,0,0,.51,2.12,1.92,1.92,0,0,0,1.78.81,2.11,2.11,0,0,0,1.88-.81,3.72,3.72,0,0,0,.55-2.12Z"></path>
    <path d="M96.79,8.36v3.38H94V8.36Zm0,7.27V38.52H94V15.63Z"></path>
    <path d="M101,38.52V15.63h1.65l.73,1.47a3.77,3.77,0,0,1,1.35-1.42,4,4,0,0,1,2-.5,4.08,4.08,0,0,1,3.46,1.3,6.6,6.6,0,0,1,1,4V38.52H108.5V20.44a3.77,3.77,0,0,0-.5-2.1,2,2,0,0,0-1.79-.78,2.13,2.13,0,0,0-1.87.78,3.62,3.62,0,0,0-.55,2.15v18Z"></path>
    <path d="M125,31.91v1.76a6.56,6.56,0,0,1-1,3.86c-.69,1-2,1.45-4,1.45a6.81,6.81,0,0,1-2.49-.39,4,4,0,0,1-1.58-1.08,3.75,3.75,0,0,1-.82-1.67,9.2,9.2,0,0,1-.23-2.17V20.53a8.62,8.62,0,0,1,.25-2.17,4.26,4.26,0,0,1,.85-1.7,3.85,3.85,0,0,1,1.57-1.09,8,8,0,0,1,4.93,0A3.71,3.71,0,0,1,124,16.66a4.18,4.18,0,0,1,.8,1.7,9.7,9.7,0,0,1,.23,2.17v1.25h-2.7V20.53a4,4,0,0,0-.51-2.22,2,2,0,0,0-1.83-.75,2.11,2.11,0,0,0-1.85.75,3.91,3.91,0,0,0-.53,2.22V33.67a3.78,3.78,0,0,0,.53,2.17,2.11,2.11,0,0,0,1.85.76,2,2,0,0,0,1.83-.76,3.87,3.87,0,0,0,.51-2.17V31.91Z"></path>
    <path d="M138.06,31.91v1.76a6.56,6.56,0,0,1-1,3.86c-.69,1-2,1.45-4,1.45a6.77,6.77,0,0,1-2.49-.39,3.75,3.75,0,0,1-2.41-2.75,9.78,9.78,0,0,1-.22-2.17V20.53a8.62,8.62,0,0,1,.25-2.17,4.35,4.35,0,0,1,.82-1.7,3.69,3.69,0,0,1,1.56-1.09,6.77,6.77,0,0,1,2.49-.39,6.62,6.62,0,0,1,2.47.39A3.81,3.81,0,0,1,137,16.66a4.32,4.32,0,0,1,.8,1.7,9.7,9.7,0,0,1,.23,2.17v6.64h-7.42v6.5c0,1.95.79,2.93,2.38,2.93a2,2,0,0,0,1.83-.76,3.87,3.87,0,0,0,.51-2.17V31.91Zm-2.7-11.33a4.06,4.06,0,0,0-.51-2.24,2,2,0,0,0-1.83-.78,2.11,2.11,0,0,0-1.85.75,3.91,3.91,0,0,0-.53,2.22V25h4.72Z"></path>
    <path d="M140.5,41.77h1c.47,0,.81.23.81.67a.64.64,0,0,1-.49.65l.57.8h-.49l-.51-.73h-.44v.73h-.41Zm.92,1c.28,0,.44-.14.44-.34s-.16-.35-.44-.35h-.51v.69Z"></path>
    <path d="M141.33,45a2.17,2.17,0,1,1,2.17-2.17A2.17,2.17,0,0,1,141.33,45Zm0-3.94a1.77,1.77,0,1,0,1.78,1.77A1.77,1.77,0,0,0,141.33,41.06Z"></path>

</svg>